{"title":"Storm.Warning.2007.DVDRIP.XviD-ZEKTORM","uid":4906231,"size":742451381,"categoryP":"video","categoryS":"movies","magnet":"?xt=urn:btih:d050a7a044a670b3d4712b5e60f12d7ac486b36c&amp;dn=Storm.Warning.2007.DVDRIP.XviD-ZEKTORM&amp;tr=udp%3A%2F%2Ftracker.openbittorrent.com%3A80&amp;tr=udp%3A%2F%2Fopen.demonii.com%3A1337&amp;tr=udp%3A%2F%2Ftracker.coppersurfer.tk%3A6969&amp;tr=udp%3A%2F%2Fexodus.desync.com%3A6969","seeders":1,"leechers":0,"uploader":"blowley","files":5,"time":1242864310,"description":"Title                            : Storm Warning\nYear                             : 2007\nGenre                            : Horror\niMDB URL                         : http://www.imdb.com/title/tt0800367/\nAwards                           : 1 win\n\nComplete name                    : SW-ZEKTORM.avi\nFormat                           : AVI\nFile size                        : 702 MiB\nDuration                         : 1h 26mn\nOverall bit rate                 : 1140 Kbps\nSubtitles                        : English, Spanish (Format: VobSub)\nSource                           : DVD NTSC\n\nVideo\nFormat                           : MPEG-4 Visual\nFormat profile                   : Streaming Video@L1\nCodec ID                         : DX50\nCodec ID/Hint                    : DivX 5\nDuration                         : 1h 26mn\nBit rate                         : 1005 Kbps\nWidth                            : 720 pixels\nHeight                           : 416 pixels\nDisplay aspect ratio             : 16/9\nFrame rate                       : 23.976 fps\nResolution                       : 24 bits\nColorimetry                      : 4:2:0\nScan type                        : Progressive\nBits/(Pixel*Frame)               : 0.140\nStream size                      : 619 MiB (88%)\nWriting library                  : XviD\n\nAudio\nFormat                           : MPEG Audio\nFormat version                   : Version 1\nFormat profile                   : Layer 3\nCodec ID                         : 55\nCodec ID/Hint                    : MP3\nDuration                         : 1h 26mn\nBit rate mode                    : Constant\nBit rate                         : 128 Kbps\nMinimum bit rate                 : 128 Kbps\nChannel(s)                       : 2 channels\nSampling rate                    : 48.0 KHz\nResolution                       : 16 bits\nStream size                      : 78.9 MiB (11%)\nWriting library                  : LAME3.98r\nEncoding settings                : CBR\n","torrent":{"xt":"urn:btih:d050a7a044a670b3d4712b5e60f12d7ac486b36c","amp;dn":"Storm.Warning.2007.DVDRIP.XviD-ZEKTORM","amp;tr":["udp%3A%2F%2Ftracker.openbittorrent.com%3A80","udp%3A%2F%2Fopen.demonii.com%3A1337","udp%3A%2F%2Ftracker.coppersurfer.tk%3A6969","udp%3A%2F%2Fexodus.desync.com%3A6969"],"infoHash":"d050a7a044a670b3d4712b5e60f12d7ac486b36c","infoHashBuffer":{"type":"Buffer","data":[208,80,167,160,68,166,112,179,212,113,43,94,96,241,45,122,196,134,179,108]},"announce":[],"urlList":[]}}